<?xml version="1.0" encoding="UTF-8"?>
<svg width="75px" height="74px" viewBox="-5 -5 119 119" version="1.1" xmlns="http://www.w3.org/2000/svg" xmlns:xlink="http://www.w3.org/1999/xlink">
    <title>SVG Layer</title>
    <g id="Page-1" stroke="none" stroke-width="1" fill="none" fill-rule="evenodd">
        <g id="Artboard" transform="translate(-146.000000, -171.000000)" fill="rgba(0,0,0,.2)" fill-rule="nonzero">
            <g id="SVG-Layer" transform="translate(146.500000, 171.000000)">
                <g id="Group" transform="translate(57.000000, 57.000000) scale(-1, 1) rotate(-180.000000) translate(-57.000000, -57.000000) translate(0.500000, 0.000000)">
                    <path d="M2.11927285,113.868718 C1.14329193,113.540512 0.260261578,112.546516 0.0557703381,111.543144 C-0.343917085,109.611417 1.57086452,107.679691 3.48564613,108.082915 C4.92637986,108.382989 6.04178662,109.864605 5.90236078,111.261824 C5.80011516,112.246442 5.06580571,113.259192 4.13630007,113.718681 C3.56930164,113.990623 2.69556634,114.056264 2.11927285,113.868718 Z" id="Path"></path>
                    <path d="M14.016945,113.868718 C12.6133915,113.399852 11.6652957,111.843218 11.9534425,110.47413 C12.1858189,109.35823 13.2175701,108.317348 14.3143868,108.082915 C16.1176277,107.698445 17.985934,109.414494 17.8000329,111.261824 C17.6977873,112.246442 16.9634778,113.259192 16.0339722,113.718681 C15.4669738,113.990623 14.5932385,114.056264 14.016945,113.868718 Z" id="Path"></path>
                    <path d="M25.9146171,113.868718 C24.9386362,113.540512 24.0556058,112.546516 23.8511146,111.543144 C23.4514272,109.611417 25.3662088,107.679691 27.2809904,108.082915 C28.7217241,108.382989 29.8371309,109.864605 29.697705,111.261824 C29.5954594,112.246442 28.86115,113.259192 27.9316443,113.718681 C27.3646459,113.990623 26.4909106,114.056264 25.9146171,113.868718 Z" id="Path"></path>
                    <path d="M37.8122892,113.868718 C36.8363083,113.540512 35.9532779,112.546516 35.7487867,111.543144 C35.3490993,109.611417 37.2638809,107.679691 39.1786625,108.082915 C40.6193962,108.382989 41.734803,109.864605 41.5953771,111.261824 C41.4931315,112.246442 40.7588221,113.259192 39.8293164,113.718681 C39.262318,113.990623 38.3885827,114.056264 37.8122892,113.868718 Z" id="Path"></path>
                    <path d="M49.7099613,113.868718 C48.7339804,113.540512 47.8509501,112.546516 47.6464588,111.543144 C47.2467714,109.611417 49.161553,107.679691 51.0763346,108.082915 C52.5170684,108.382989 53.6324751,109.864605 53.4930493,111.261824 C53.3908037,112.246442 52.6564942,113.259192 51.7269886,113.718681 C51.1599901,113.990623 50.2862548,114.056264 49.7099613,113.868718 Z" id="Path"></path>
                    <path d="M61.6076335,113.868718 C60.6316525,113.540512 59.7486222,112.546516 59.544131,111.543144 C59.1444435,109.611417 61.0592251,107.679691 62.9740067,108.082915 C64.4147405,108.382989 65.5301472,109.864605 65.3907214,111.261824 C65.2884758,112.246442 64.5541663,113.259192 63.6246607,113.718681 C63.0576623,113.990623 62.183927,114.056264 61.6076335,113.868718 Z" id="Path"></path>
                    <path d="M73.5053056,113.868718 C72.5293247,113.540512 71.6462943,112.546516 71.4418031,111.543144 C71.0421157,109.611417 72.9568973,107.679691 74.8716789,108.082915 C76.3124126,108.382989 77.4278194,109.864605 77.2883935,111.261824 C77.1861479,112.246442 76.4518384,113.259192 75.5223328,113.718681 C74.9553344,113.990623 74.0815991,114.056264 73.5053056,113.868718 Z" id="Path"></path>
                    <path d="M85.4029777,113.868718 C84.4269968,113.540512 83.5439664,112.546516 83.3394752,111.543144 C82.9397878,109.611417 84.8545694,107.679691 86.769351,108.082915 C88.2100847,108.382989 89.3254915,109.864605 89.1860656,111.261824 C89.08382,112.246442 88.3495106,113.259192 87.4200049,113.718681 C86.8530065,113.990623 85.9792712,114.056264 85.4029777,113.868718 Z" id="Path"></path>
                    <path d="M97.3006498,113.868718 C96.3246689,113.540512 95.4416386,112.546516 95.2371473,111.543144 C95.0047709,110.445998 95.5345891,109.255079 96.5570453,108.551781 C97.5516164,107.85786 98.6856132,107.848482 99.6894793,108.523649 C101.334704,109.630172 101.557786,111.693181 100.182117,113.071646 C99.3920375,113.878095 98.2580406,114.187546 97.3006498,113.868718 Z" id="Path"></path>
                    <path d="M109.198322,113.868718 C108.222341,113.540512 107.339311,112.546516 107.134819,111.543144 C106.902443,110.445998 107.432261,109.255079 108.454717,108.551781 C109.449288,107.85786 110.583285,107.848482 111.587151,108.523649 C113.232376,109.630172 113.455458,111.693181 112.079789,113.071646 C111.28971,113.878095 110.155713,114.187546 109.198322,113.868718 Z" id="Path"></path>
                    <path d="M2.11927285,101.865756 C1.14329193,101.53755 0.260261578,100.543555 0.0557703381,99.5401826 C-0.343917085,97.608456 1.57086452,95.6767295 3.48564613,96.0799539 C4.92637986,96.380028 6.04178662,97.8616435 5.90236078,99.2588632 C5.80011516,100.243481 5.06580571,101.256231 4.13630007,101.715719 C3.56930164,101.987661 2.69556634,102.053303 2.11927285,101.865756 Z" id="Path"></path>
                    <path d="M14.016945,101.865756 C12.6133915,101.396891 11.6652957,99.8402566 11.9534425,98.4711689 C12.1858189,97.3552686 13.2175701,96.3143868 14.3143868,96.0799539 C16.1176277,95.6954841 17.985934,97.4115325 17.8000329,99.2588632 C17.6977873,100.243481 16.9634778,101.256231 16.0339722,101.715719 C15.4669738,101.987661 14.5932385,102.053303 14.016945,101.865756 Z" id="Path"></path>
                    <path d="M25.9146171,101.865756 C24.9386362,101.53755 24.0556058,100.543555 23.8511146,99.5401826 C23.4514272,97.608456 25.3662088,95.6767295 27.2809904,96.0799539 C28.7217241,96.380028 29.8371309,97.8616435 29.697705,99.2588632 C29.5954594,100.243481 28.86115,101.256231 27.9316443,101.715719 C27.3646459,101.987661 26.4909106,102.053303 25.9146171,101.865756 Z" id="Path"></path>
                    <path d="M37.8122892,101.865756 C36.8363083,101.53755 35.9532779,100.543555 35.7487867,99.5401826 C35.3490993,97.608456 37.2638809,95.6767295 39.1786625,96.0799539 C40.6193962,96.380028 41.734803,97.8616435 41.5953771,99.2588632 C41.4931315,100.243481 40.7588221,101.256231 39.8293164,101.715719 C39.262318,101.987661 38.3885827,102.053303 37.8122892,101.865756 Z" id="Path"></path>
                    <path d="M49.7099613,101.865756 C48.7339804,101.53755 47.8509501,100.543555 47.6464588,99.5401826 C47.2467714,97.608456 49.161553,95.6767295 51.0763346,96.0799539 C52.5170684,96.380028 53.6324751,97.8616435 53.4930493,99.2588632 C53.3908037,100.243481 52.6564942,101.256231 51.7269886,101.715719 C51.1599901,101.987661 50.2862548,102.053303 49.7099613,101.865756 Z" id="Path"></path>
                    <path d="M61.6076335,101.865756 C60.6316525,101.53755 59.7486222,100.543555 59.544131,99.5401826 C59.1444435,97.608456 61.0592251,95.6767295 62.9740067,96.0799539 C64.4147405,96.380028 65.5301472,97.8616435 65.3907214,99.2588632 C65.2884758,100.243481 64.5541663,101.256231 63.6246607,101.715719 C63.0576623,101.987661 62.183927,102.053303 61.6076335,101.865756 Z" id="Path"></path>
                    <path d="M73.5053056,101.865756 C72.5293247,101.53755 71.6462943,100.543555 71.4418031,99.5401826 C71.0421157,97.608456 72.9568973,95.6767295 74.8716789,96.0799539 C76.3124126,96.380028 77.4278194,97.8616435 77.2883935,99.2588632 C77.1861479,100.243481 76.4518384,101.256231 75.5223328,101.715719 C74.9553344,101.987661 74.0815991,102.053303 73.5053056,101.865756 Z" id="Path"></path>
                    <path d="M85.4029777,101.865756 C84.4269968,101.53755 83.5439664,100.543555 83.3394752,99.5401826 C82.9397878,97.608456 84.8545694,95.6767295 86.769351,96.0799539 C88.2100847,96.380028 89.3254915,97.8616435 89.1860656,99.2588632 C89.08382,100.243481 88.3495106,101.256231 87.4200049,101.715719 C86.8530065,101.987661 85.9792712,102.053303 85.4029777,101.865756 Z" id="Path"></path>
                    <path d="M97.3006498,101.865756 C96.3246689,101.53755 95.4416386,100.543555 95.2371473,99.5401826 C95.0047709,98.4430369 95.5345891,97.2521181 96.5570453,96.5488196 C97.5516164,95.8548984 98.6856132,95.8455211 99.6894793,96.5206877 C101.334704,97.6272107 101.557786,99.6902196 100.182117,101.068685 C99.3920375,101.875134 98.2580406,102.184585 97.3006498,101.865756 Z" id="Path"></path>
                    <path d="M109.198322,101.865756 C108.222341,101.53755 107.339311,100.543555 107.134819,99.5401826 C106.902443,98.4430369 107.432261,97.2521181 108.454717,96.5488196 C109.449288,95.8548984 110.583285,95.8455211 111.587151,96.5206877 C113.232376,97.6272107 113.455458,99.6902196 112.079789,101.068685 C111.28971,101.875134 110.155713,102.184585 109.198322,101.865756 Z" id="Path"></path>
                    <path d="M2.11927285,89.8627951 C1.14329193,89.5345891 0.260261578,88.5405939 0.0557703381,87.5372214 C-0.343917085,85.6054948 1.57086452,83.6737682 3.48564613,84.0769927 C4.92637986,84.3770667 6.04178662,85.8586822 5.90236078,87.2559019 C5.80011516,88.2405199 5.06580571,89.2532697 4.13630007,89.7127581 C3.56930164,89.9847002 2.69556634,90.0503414 2.11927285,89.8627951 Z" id="Path"></path>
                    <path d="M14.016945,89.8627951 C13.0409641,89.5345891 12.1579337,88.5405939 11.9534425,87.5372214 C11.553755,85.6054948 13.4685366,83.6737682 15.3833183,84.0769927 C16.824052,84.3770667 17.9394587,85.8586822 17.8000329,87.2559019 C17.6977873,88.2405199 16.9634778,89.2532697 16.0339722,89.7127581 C15.4669738,89.9847002 14.5932385,90.0503414 14.016945,89.8627951 Z" id="Path"></path>
                    <path d="M25.9146171,89.8627951 C24.9386362,89.5345891 24.0556058,88.5405939 23.8511146,87.5372214 C23.4514272,85.6054948 25.3662088,83.6737682 27.2809904,84.0769927 C28.7217241,84.3770667 29.8371309,85.8586822 29.697705,87.2559019 C29.5954594,88.2405199 28.86115,89.2532697 27.9316443,89.7127581 C27.3646459,89.9847002 26.4909106,90.0503414 25.9146171,89.8627951 Z" id="Path"></path>
                    <path d="M37.8122892,89.8627951 C36.8363083,89.5345891 35.9532779,88.5405939 35.7487867,87.5372214 C35.3490993,85.6054948 37.2638809,83.6737682 39.1786625,84.0769927 C40.6193962,84.3770667 41.734803,85.8586822 41.5953771,87.2559019 C41.4931315,88.2405199 40.7588221,89.2532697 39.8293164,89.7127581 C39.262318,89.9847002 38.3885827,90.0503414 37.8122892,89.8627951 Z" id="Path"></path>
                    <path d="M49.7099613,89.8627951 C48.7339804,89.5345891 47.8509501,88.5405939 47.6464588,87.5372214 C47.2467714,85.6054948 49.161553,83.6737682 51.0763346,84.0769927 C52.5170684,84.3770667 53.6324751,85.8586822 53.4930493,87.2559019 C53.3908037,88.2405199 52.6564942,89.2532697 51.7269886,89.7127581 C51.1599901,89.9847002 50.2862548,90.0503414 49.7099613,89.8627951 Z" id="Path"></path>
                    <path d="M61.6076335,89.8627951 C60.6316525,89.5345891 59.7486222,88.5405939 59.544131,87.5372214 C59.1444435,85.6054948 61.0592251,83.6737682 62.9740067,84.0769927 C64.4147405,84.3770667 65.5301472,85.8586822 65.3907214,87.2559019 C65.2884758,88.2405199 64.5541663,89.2532697 63.6246607,89.7127581 C63.0576623,89.9847002 62.183927,90.0503414 61.6076335,89.8627951 Z" id="Path"></path>
                    <path d="M73.5053056,89.8627951 C72.5293247,89.5345891 71.6462943,88.5405939 71.4418031,87.5372214 C71.0421157,85.6054948 72.9568973,83.6737682 74.8716789,84.0769927 C76.3124126,84.3770667 77.4278194,85.8586822 77.2883935,87.2559019 C77.1861479,88.2405199 76.4518384,89.2532697 75.5223328,89.7127581 C74.9553344,89.9847002 74.0815991,90.0503414 73.5053056,89.8627951 Z" id="Path"></path>
                    <path d="M85.4029777,89.8627951 C84.4269968,89.5345891 83.5439664,88.5405939 83.3394752,87.5372214 C82.9397878,85.6054948 84.8545694,83.6737682 86.769351,84.0769927 C88.2100847,84.3770667 89.3254915,85.8586822 89.1860656,87.2559019 C89.08382,88.2405199 88.3495106,89.2532697 87.4200049,89.7127581 C86.8530065,89.9847002 85.9792712,90.0503414 85.4029777,89.8627951 Z" id="Path"></path>
                    <path d="M97.3006498,89.8627951 C96.3246689,89.5345891 95.4416386,88.5405939 95.2371473,87.5372214 C94.8374599,85.6054948 96.7522415,83.6737682 98.6670231,84.0769927 C100.107757,84.3770667 101.223164,85.8586822 101.083738,87.2559019 C100.981492,88.2405199 100.247183,89.2532697 99.3176771,89.7127581 C98.7506786,89.9847002 97.8769433,90.0503414 97.3006498,89.8627951 Z" id="Path"></path>
                    <path d="M109.198322,89.8627951 C108.222341,89.5345891 107.339311,88.5405939 107.134819,87.5372214 C106.735132,85.6054948 108.649914,83.6737682 110.564695,84.0769927 C112.005429,84.3770667 113.120836,85.8586822 112.98141,87.2559019 C112.879164,88.2405199 112.144855,89.2532697 111.215349,89.7127581 C110.648351,89.9847002 109.774615,90.0503414 109.198322,89.8627951 Z" id="Path"></path>
                    <path d="M2.11927285,77.8598338 C1.14329193,77.5316279 0.260261578,76.5376326 0.0557703381,75.5342601 C-0.343917085,73.6025335 1.57086452,71.6708069 3.48564613,72.0740314 C4.92637986,72.3741055 6.04178662,73.855721 5.90236078,75.2529407 C5.80011516,76.2375586 5.06580571,77.2503085 4.13630007,77.7097968 C3.56930164,77.9817389 2.69556634,78.0473801 2.11927285,77.8598338 Z" id="Path"></path>
                    <path d="M14.016945,77.8598338 C13.0409641,77.5316279 12.1579337,76.5376326 11.9534425,75.5342601 C11.553755,73.6025335 13.4685366,71.6708069 15.3833183,72.0740314 C16.824052,72.3741055 17.9394587,73.855721 17.8000329,75.2529407 C17.6977873,76.2375586 16.9634778,77.2503085 16.0339722,77.7097968 C15.4669738,77.9817389 14.5932385,78.0473801 14.016945,77.8598338 Z" id="Path"></path>
                    <path d="M25.9146171,77.8598338 C24.9386362,77.5316279 24.0556058,76.5376326 23.8511146,75.5342601 C23.4514272,73.6025335 25.3662088,71.6708069 27.2809904,72.0740314 C28.7217241,72.3741055 29.8371309,73.855721 29.697705,75.2529407 C29.5954594,76.2375586 28.86115,77.2503085 27.9316443,77.7097968 C27.3646459,77.9817389 26.4909106,78.0473801 25.9146171,77.8598338 Z" id="Path"></path>
                    <path d="M37.8122892,77.8598338 C36.8363083,77.5316279 35.9532779,76.5376326 35.7487867,75.5342601 C35.3490993,73.6025335 37.2638809,71.6708069 39.1786625,72.0740314 C40.6193962,72.3741055 41.734803,73.855721 41.5953771,75.2529407 C41.4931315,76.2375586 40.7588221,77.2503085 39.8293164,77.7097968 C39.262318,77.9817389 38.3885827,78.0473801 37.8122892,77.8598338 Z" id="Path"></path>
                    <path d="M49.7099613,77.8598338 C48.7339804,77.5316279 47.8509501,76.5376326 47.6464588,75.5342601 C47.2467714,73.6025335 49.161553,71.6708069 51.0763346,72.0740314 C52.5170684,72.3741055 53.6324751,73.855721 53.4930493,75.2529407 C53.3908037,76.2375586 52.6564942,77.2503085 51.7269886,77.7097968 C51.1599901,77.9817389 50.2862548,78.0473801 49.7099613,77.8598338 Z" id="Path"></path>
                    <path d="M61.6076335,77.8598338 C60.6316525,77.5316279 59.7486222,76.5376326 59.544131,75.5342601 C59.1444435,73.6025335 61.0592251,71.6708069 62.9740067,72.0740314 C64.4147405,72.3741055 65.5301472,73.855721 65.3907214,75.2529407 C65.2884758,76.2375586 64.5541663,77.2503085 63.6246607,77.7097968 C63.0576623,77.9817389 62.183927,78.0473801 61.6076335,77.8598338 Z" id="Path"></path>
                    <path d="M73.5053056,77.8598338 C72.5293247,77.5316279 71.6462943,76.5376326 71.4418031,75.5342601 C71.0421157,73.6025335 72.9568973,71.6708069 74.8716789,72.0740314 C76.3124126,72.3741055 77.4278194,73.855721 77.2883935,75.2529407 C77.1861479,76.2375586 76.4518384,77.2503085 75.5223328,77.7097968 C74.9553344,77.9817389 74.0815991,78.0473801 73.5053056,77.8598338 Z" id="Path"></path>
                    <path d="M85.4029777,77.8598338 C84.4269968,77.5316279 83.5439664,76.5376326 83.3394752,75.5342601 C82.9397878,73.6025335 84.8545694,71.6708069 86.769351,72.0740314 C88.2100847,72.3741055 89.3254915,73.855721 89.1860656,75.2529407 C89.08382,76.2375586 88.3495106,77.2503085 87.4200049,77.7097968 C86.8530065,77.9817389 85.9792712,78.0473801 85.4029777,77.8598338 Z" id="Path"></path>
                    <path d="M97.3006498,77.8598338 C96.3246689,77.5316279 95.4416386,76.5376326 95.2371473,75.5342601 C94.8374599,73.6025335 96.7522415,71.6708069 98.6670231,72.0740314 C100.107757,72.3741055 101.223164,73.855721 101.083738,75.2529407 C100.981492,76.2375586 100.247183,77.2503085 99.3176771,77.7097968 C98.7506786,77.9817389 97.8769433,78.0473801 97.3006498,77.8598338 Z" id="Path"></path>
                    <path d="M109.198322,77.8598338 C108.222341,77.5316279 107.339311,76.5376326 107.134819,75.5342601 C106.735132,73.6025335 108.649914,71.6708069 110.564695,72.0740314 C112.005429,72.3741055 113.120836,73.855721 112.98141,75.2529407 C112.879164,76.2375586 112.144855,77.2503085 111.215349,77.7097968 C110.648351,77.9817389 109.774615,78.0473801 109.198322,77.8598338 Z" id="Path"></path>
                    <path d="M2.11927285,65.8568726 C1.14329193,65.5286666 0.260261578,64.5346714 0.0557703381,63.5312988 C-0.343917085,61.5995723 1.57086452,59.6678457 3.48564613,60.0710702 C4.92637986,60.3711442 6.04178662,61.8527597 5.90236078,63.2499794 C5.80011516,64.2345974 5.06580571,65.2473472 4.13630007,65.7068356 C3.56930164,65.9787777 2.69556634,66.0444189 2.11927285,65.8568726 Z" id="Path"></path>
                    <path d="M14.016945,65.8568726 C13.0409641,65.5286666 12.1579337,64.5346714 11.9534425,63.5312988 C11.553755,61.5995723 13.4685366,59.6678457 15.3833183,60.0710702 C16.824052,60.3711442 17.9394587,61.8527597 17.8000329,63.2499794 C17.6977873,64.2345974 16.9634778,65.2473472 16.0339722,65.7068356 C15.4669738,65.9787777 14.5932385,66.0444189 14.016945,65.8568726 Z" id="Path"></path>
                    <path d="M25.9146171,65.8568726 C24.9386362,65.5286666 24.0556058,64.5346714 23.8511146,63.5312988 C23.4514272,61.5995723 25.3662088,59.6678457 27.2809904,60.0710702 C28.7217241,60.3711442 29.8371309,61.8527597 29.697705,63.2499794 C29.5954594,64.2345974 28.86115,65.2473472 27.9316443,65.7068356 C27.3646459,65.9787777 26.4909106,66.0444189 25.9146171,65.8568726 Z" id="Path"></path>
                    <path d="M37.8122892,65.8568726 C36.8363083,65.5286666 35.9532779,64.5346714 35.7487867,63.5312988 C35.3490993,61.5995723 37.2638809,59.6678457 39.1786625,60.0710702 C40.6193962,60.3711442 41.734803,61.8527597 41.5953771,63.2499794 C41.4931315,64.2345974 40.7588221,65.2473472 39.8293164,65.7068356 C39.262318,65.9787777 38.3885827,66.0444189 37.8122892,65.8568726 Z" id="Path"></path>
                    <path d="M49.7099613,65.8568726 C48.7339804,65.5286666 47.8509501,64.5346714 47.6464588,63.5312988 C47.2467714,61.5995723 49.161553,59.6678457 51.0763346,60.0710702 C52.5170684,60.3711442 53.6324751,61.8527597 53.4930493,63.2499794 C53.3908037,64.2345974 52.6564942,65.2473472 51.7269886,65.7068356 C51.1599901,65.9787777 50.2862548,66.0444189 49.7099613,65.8568726 Z" id="Path"></path>
                    <path d="M61.6076335,65.8568726 C60.6316525,65.5286666 59.7486222,64.5346714 59.544131,63.5312988 C59.1444435,61.5995723 61.0592251,59.6678457 62.9740067,60.0710702 C64.4147405,60.3711442 65.5301472,61.8527597 65.3907214,63.2499794 C65.2884758,64.2345974 64.5541663,65.2473472 63.6246607,65.7068356 C63.0576623,65.9787777 62.183927,66.0444189 61.6076335,65.8568726 Z" id="Path"></path>
                    <path d="M73.5053056,65.8568726 C72.5293247,65.5286666 71.6462943,64.5346714 71.4418031,63.5312988 C71.0421157,61.5995723 72.9568973,59.6678457 74.8716789,60.0710702 C76.3124126,60.3711442 77.4278194,61.8527597 77.2883935,63.2499794 C77.1861479,64.2345974 76.4518384,65.2473472 75.5223328,65.7068356 C74.9553344,65.9787777 74.0815991,66.0444189 73.5053056,65.8568726 Z" id="Path"></path>
                    <path d="M85.4029777,65.8568726 C84.4269968,65.5286666 83.5439664,64.5346714 83.3394752,63.5312988 C82.9397878,61.5995723 84.8545694,59.6678457 86.769351,60.0710702 C88.2100847,60.3711442 89.3254915,61.8527597 89.1860656,63.2499794 C89.08382,64.2345974 88.3495106,65.2473472 87.4200049,65.7068356 C86.8530065,65.9787777 85.9792712,66.0444189 85.4029777,65.8568726 Z" id="Path"></path>
                    <path d="M97.3006498,65.8568726 C96.3246689,65.5286666 95.4416386,64.5346714 95.2371473,63.5312988 C94.8374599,61.5995723 96.7522415,59.6678457 98.6670231,60.0710702 C100.107757,60.3711442 101.223164,61.8527597 101.083738,63.2499794 C100.981492,64.2345974 100.247183,65.2473472 99.3176771,65.7068356 C98.7506786,65.9787777 97.8769433,66.0444189 97.3006498,65.8568726 Z" id="Path"></path>
                    <path d="M109.198322,65.8568726 C108.222341,65.5286666 107.339311,64.5346714 107.134819,63.5312988 C106.735132,61.5995723 108.649914,59.6678457 110.564695,60.0710702 C112.005429,60.3711442 113.120836,61.8527597 112.98141,63.2499794 C112.879164,64.2345974 112.144855,65.2473472 111.215349,65.7068356 C110.648351,65.9787777 109.774615,66.0444189 109.198322,65.8568726 Z" id="Path"></path>
                    <path d="M2.11927285,53.8539113 C1.14329193,53.5257054 0.260261578,52.5317101 0.0557703381,51.5283376 C-0.343917085,49.596611 1.57086452,47.6648844 3.48564613,48.0681089 C4.92637986,48.3681829 6.04178662,49.8497985 5.90236078,51.2470182 C5.80011516,52.2316361 5.06580571,53.244386 4.13630007,53.7038743 C3.56930164,53.9758164 2.69556634,54.0414576 2.11927285,53.8539113 Z" id="Path"></path>
                    <path d="M14.016945,53.8539113 C13.0409641,53.5257054 12.1579337,52.5317101 11.9534425,51.5283376 C11.553755,49.596611 13.4685366,47.6648844 15.3833183,48.0681089 C16.824052,48.3681829 17.9394587,49.8497985 17.8000329,51.2470182 C17.6977873,52.2316361 16.9634778,53.244386 16.0339722,53.7038743 C15.4669738,53.9758164 14.5932385,54.0414576 14.016945,53.8539113 Z" id="Path"></path>
                    <path d="M25.9146171,53.8539113 C24.9386362,53.5257054 24.0556058,52.5317101 23.8511146,51.5283376 C23.4514272,49.596611 25.3662088,47.6648844 27.2809904,48.0681089 C28.7217241,48.3681829 29.8371309,49.8497985 29.697705,51.2470182 C29.5954594,52.2316361 28.86115,53.244386 27.9316443,53.7038743 C27.3646459,53.9758164 26.4909106,54.0414576 25.9146171,53.8539113 Z" id="Path"></path>
                    <path d="M37.8122892,53.8539113 C36.8363083,53.5257054 35.9532779,52.5317101 35.7487867,51.5283376 C35.3490993,49.596611 37.2638809,47.6648844 39.1786625,48.0681089 C40.6193962,48.3681829 41.734803,49.8497985 41.5953771,51.2470182 C41.4931315,52.2316361 40.7588221,53.244386 39.8293164,53.7038743 C39.262318,53.9758164 38.3885827,54.0414576 37.8122892,53.8539113 Z" id="Path"></path>
                    <path d="M49.7099613,53.8539113 C48.7339804,53.5257054 47.8509501,52.5317101 47.6464588,51.5283376 C47.2467714,49.596611 49.161553,47.6648844 51.0763346,48.0681089 C52.5170684,48.3681829 53.6324751,49.8497985 53.4930493,51.2470182 C53.3908037,52.2316361 52.6564942,53.244386 51.7269886,53.7038743 C51.1599901,53.9758164 50.2862548,54.0414576 49.7099613,53.8539113 Z" id="Path"></path>
                    <path d="M61.6076335,53.8539113 C60.6316525,53.5257054 59.7486222,52.5317101 59.544131,51.5283376 C59.1444435,49.596611 61.0592251,47.6648844 62.9740067,48.0681089 C64.4147405,48.3681829 65.5301472,49.8497985 65.3907214,51.2470182 C65.2884758,52.2316361 64.5541663,53.244386 63.6246607,53.7038743 C63.0576623,53.9758164 62.183927,54.0414576 61.6076335,53.8539113 Z" id="Path"></path>
                    <path d="M73.5053056,53.8539113 C72.5293247,53.5257054 71.6462943,52.5317101 71.4418031,51.5283376 C71.0421157,49.596611 72.9568973,47.6648844 74.8716789,48.0681089 C76.3124126,48.3681829 77.4278194,49.8497985 77.2883935,51.2470182 C77.1861479,52.2316361 76.4518384,53.244386 75.5223328,53.7038743 C74.9553344,53.9758164 74.0815991,54.0414576 73.5053056,53.8539113 Z" id="Path"></path>
                    <path d="M85.4029777,53.8539113 C84.4269968,53.5257054 83.5439664,52.5317101 83.3394752,51.5283376 C82.9397878,49.596611 84.8545694,47.6648844 86.769351,48.0681089 C88.2100847,48.3681829 89.3254915,49.8497985 89.1860656,51.2470182 C89.08382,52.2316361 88.3495106,53.244386 87.4200049,53.7038743 C86.8530065,53.9758164 85.9792712,54.0414576 85.4029777,53.8539113 Z" id="Path"></path>
                    <path d="M97.3006498,53.8539113 C96.3246689,53.5257054 95.4416386,52.5317101 95.2371473,51.5283376 C94.8374599,49.596611 96.7522415,47.6648844 98.6670231,48.0681089 C100.107757,48.3681829 101.223164,49.8497985 101.083738,51.2470182 C100.981492,52.2316361 100.247183,53.244386 99.3176771,53.7038743 C98.7506786,53.9758164 97.8769433,54.0414576 97.3006498,53.8539113 Z" id="Path"></path>
                    <path d="M109.198322,53.8539113 C108.222341,53.5257054 107.339311,52.5317101 107.134819,51.5283376 C106.735132,49.596611 108.649914,47.6648844 110.564695,48.0681089 C112.005429,48.3681829 113.120836,49.8497985 112.98141,51.2470182 C112.879164,52.2316361 112.144855,53.244386 111.215349,53.7038743 C110.648351,53.9758164 109.774615,54.0414576 109.198322,53.8539113 Z" id="Path"></path>
                    <path d="M2.11927285,41.8509501 C1.14329193,41.5227441 0.260261578,40.5287489 0.0557703381,39.5253763 C-0.343917085,37.5936497 1.57086452,35.6619232 3.48564613,36.0651477 C4.92637986,36.3652217 6.04178662,37.8468372 5.90236078,39.2440569 C5.80011516,40.2286748 5.06580571,41.2414247 4.13630007,41.7009131 C3.56930164,41.9728551 2.69556634,42.0384963 2.11927285,41.8509501 Z" id="Path"></path>
                    <path d="M14.016945,41.8509501 C13.0409641,41.5227441 12.1579337,40.5287489 11.9534425,39.5253763 C11.553755,37.5936497 13.4685366,35.6619232 15.3833183,36.0651477 C16.824052,36.3652217 17.9394587,37.8468372 17.8000329,39.2440569 C17.6977873,40.2286748 16.9634778,41.2414247 16.0339722,41.7009131 C15.4669738,41.9728551 14.5932385,42.0384963 14.016945,41.8509501 Z" id="Path"></path>
                    <path d="M25.9146171,41.8509501 C24.9386362,41.5227441 24.0556058,40.5287489 23.8511146,39.5253763 C23.6187382,38.4282306 24.1485564,37.2373118 25.1710126,36.5340133 C26.1655836,35.8400921 27.2995805,35.8307148 28.3034466,36.5058814 C29.9486715,37.6124044 30.1717529,39.6754133 28.7960846,41.0538784 C28.0060048,41.8603274 26.8720079,42.1697787 25.9146171,41.8509501 Z" id="Path"></path>
                    <path d="M37.8122892,41.8509501 C36.8363083,41.5227441 35.9532779,40.5287489 35.7487867,39.5253763 C35.5164103,38.4282306 36.0462285,37.2373118 37.0686847,36.5340133 C38.0632557,35.8400921 39.1972526,35.8307148 40.2011187,36.5058814 C41.8463437,37.6124044 42.069425,39.6754133 40.6937567,41.0538784 C39.9036769,41.8603274 38.76968,42.1697787 37.8122892,41.8509501 Z" id="Path"></path>
                    <path d="M49.7099613,41.8509501 C48.3064078,41.3820844 47.3583121,39.8254504 47.6464588,38.4563626 C47.8788352,37.3404623 48.9105865,36.2995805 50.0166982,36.0651477 C51.8106441,35.6806778 53.6789504,37.3967262 53.4930493,39.2440569 C53.3908037,40.2286748 52.6564942,41.2414247 51.7269886,41.7009131 C51.1599901,41.9728551 50.2862548,42.0384963 49.7099613,41.8509501 Z" id="Path"></path>
                    <path d="M61.6076335,41.8509501 C60.20408,41.3820844 59.2559842,39.8254504 59.544131,38.4563626 C59.7765074,37.3404623 60.8082586,36.2995805 61.9143703,36.0651477 C63.7083162,35.6806778 65.5766225,37.3967262 65.3907214,39.2440569 C65.2884758,40.2286748 64.5541663,41.2414247 63.6246607,41.7009131 C63.0576623,41.9728551 62.183927,42.0384963 61.6076335,41.8509501 Z" id="Path"></path>
                    <path d="M73.5053056,41.8509501 C72.1017521,41.3820844 71.1536563,39.8254504 71.4418031,38.4563626 C71.6741795,37.3404623 72.7059307,36.2995805 73.8120424,36.0651477 C75.6059883,35.6806778 77.4742946,37.3967262 77.2883935,39.2440569 C77.1861479,40.2286748 76.4518384,41.2414247 75.5223328,41.7009131 C74.9553344,41.9728551 74.0815991,42.0384963 73.5053056,41.8509501 Z" id="Path"></path>
                    <path d="M85.4029777,41.8509501 C83.9994242,41.3820844 83.0513285,39.8254504 83.3394752,38.4563626 C83.5718516,37.3404623 84.6036029,36.2995805 85.7097146,36.0651477 C87.5036604,35.6806778 89.3719668,37.3967262 89.1860656,39.2440569 C89.08382,40.2286748 88.3495106,41.2414247 87.4200049,41.7009131 C86.8530065,41.9728551 85.9792712,42.0384963 85.4029777,41.8509501 Z" id="Path"></path>
                    <path d="M97.3006498,41.8509501 C96.3246689,41.5227441 95.4416386,40.5287489 95.2371473,39.5253763 C94.8374599,37.5936497 96.7522415,35.6619232 98.6670231,36.0651477 C100.107757,36.3652217 101.223164,37.8468372 101.083738,39.2440569 C100.981492,40.2286748 100.247183,41.2414247 99.3176771,41.7009131 C98.7506786,41.9728551 97.8769433,42.0384963 97.3006498,41.8509501 Z" id="Path"></path>
                    <path d="M109.198322,41.8509501 C108.222341,41.5227441 107.339311,40.5287489 107.134819,39.5253763 C106.735132,37.5936497 108.649914,35.6619232 110.564695,36.0651477 C112.005429,36.3652217 113.120836,37.8468372 112.98141,39.2440569 C112.879164,40.2286748 112.144855,41.2414247 111.215349,41.7009131 C110.648351,41.9728551 109.774615,42.0384963 109.198322,41.8509501 Z" id="Path"></path>
                    <path d="M2.11927285,29.8479888 C1.14329193,29.5197828 0.260261578,28.5257876 0.0557703381,27.5224151 C-0.343917085,25.5906885 1.57086452,23.6589619 3.48564613,24.0621864 C4.92637986,24.3622604 6.04178662,25.843876 5.90236078,27.2410957 C5.80011516,28.2257136 5.06580571,29.2384634 4.13630007,29.6979518 C3.56930164,29.9698939 2.69556634,30.0355351 2.11927285,29.8479888 Z" id="Path"></path>
                    <path d="M14.016945,29.8479888 C13.0409641,29.5197828 12.1579337,28.5257876 11.9534425,27.5224151 C11.553755,25.5906885 13.4685366,23.6589619 15.3833183,24.0621864 C16.824052,24.3622604 17.9394587,25.843876 17.8000329,27.2410957 C17.6977873,28.2257136 16.9634778,29.2384634 16.0339722,29.6979518 C15.4669738,29.9698939 14.5932385,30.0355351 14.016945,29.8479888 Z" id="Path"></path>
                    <path d="M25.9146171,29.8479888 C24.9386362,29.5197828 24.0556058,28.5257876 23.8511146,27.5224151 C23.6187382,26.4252694 24.1485564,25.2343506 25.1710126,24.5310521 C26.1655836,23.8371309 27.2995805,23.8277536 28.3034466,24.5029201 C29.9486715,25.6094431 30.1717529,27.6724521 28.7960846,29.0509172 C28.0060048,29.8573661 26.8720079,30.1668175 25.9146171,29.8479888 Z" id="Path"></path>
                    <path d="M37.8122892,29.8479888 C36.8363083,29.5197828 35.9532779,28.5257876 35.7487867,27.5224151 C35.5164103,26.4252694 36.0462285,25.2343506 37.0686847,24.5310521 C38.0632557,23.8371309 39.1972526,23.8277536 40.2011187,24.5029201 C41.8463437,25.6094431 42.069425,27.6724521 40.6937567,29.0509172 C39.9036769,29.8573661 38.76968,30.1668175 37.8122892,29.8479888 Z" id="Path"></path>
                    <path d="M49.7099613,29.8479888 C48.3064078,29.3791231 47.3583121,27.8224891 47.6464588,26.4534013 C47.8788352,25.337501 48.9105865,24.2966192 50.0166982,24.0621864 C51.8106441,23.6777165 53.6789504,25.3937649 53.4930493,27.2410957 C53.3908037,28.2257136 52.6564942,29.2384634 51.7269886,29.6979518 C51.1599901,29.9698939 50.2862548,30.0355351 49.7099613,29.8479888 Z" id="Path"></path>
                    <path d="M61.6076335,29.8479888 C60.20408,29.3791231 59.2559842,27.8224891 59.544131,26.4534013 C59.7765074,25.337501 60.8082586,24.2966192 61.9143703,24.0621864 C63.7083162,23.6777165 65.5766225,25.3937649 65.3907214,27.2410957 C65.2884758,28.2257136 64.5541663,29.2384634 63.6246607,29.6979518 C63.0576623,29.9698939 62.183927,30.0355351 61.6076335,29.8479888 Z" id="Path"></path>
                    <path d="M73.5053056,29.8479888 C72.1017521,29.3791231 71.1536563,27.8224891 71.4418031,26.4534013 C71.6741795,25.337501 72.7059307,24.2966192 73.8120424,24.0621864 C75.6059883,23.6777165 77.4742946,25.3937649 77.2883935,27.2410957 C77.1861479,28.2257136 76.4518384,29.2384634 75.5223328,29.6979518 C74.9553344,29.9698939 74.0815991,30.0355351 73.5053056,29.8479888 Z" id="Path"></path>
                    <path d="M85.4029777,29.8479888 C83.9994242,29.3791231 83.0513285,27.8224891 83.3394752,26.4534013 C83.5718516,25.337501 84.6036029,24.2966192 85.7097146,24.0621864 C87.5036604,23.6777165 89.3719668,25.3937649 89.1860656,27.2410957 C89.08382,28.2257136 88.3495106,29.2384634 87.4200049,29.6979518 C86.8530065,29.9698939 85.9792712,30.0355351 85.4029777,29.8479888 Z" id="Path"></path>
                    <path d="M97.3006498,29.8479888 C96.3246689,29.5197828 95.4416386,28.5257876 95.2371473,27.5224151 C94.8374599,25.5906885 96.7522415,23.6589619 98.6670231,24.0621864 C100.107757,24.3622604 101.223164,25.843876 101.083738,27.2410957 C100.981492,28.2257136 100.247183,29.2384634 99.3176771,29.6979518 C98.7506786,29.9698939 97.8769433,30.0355351 97.3006498,29.8479888 Z" id="Path"></path>
                    <path d="M109.198322,29.8479888 C108.222341,29.5197828 107.339311,28.5257876 107.134819,27.5224151 C106.735132,25.5906885 108.649914,23.6589619 110.564695,24.0621864 C112.005429,24.3622604 113.120836,25.843876 112.98141,27.2410957 C112.879164,28.2257136 112.144855,29.2384634 111.215349,29.6979518 C110.648351,29.9698939 109.774615,30.0355351 109.198322,29.8479888 Z" id="Path"></path>
                    <path d="M2.11927285,17.8450276 C1.14329193,17.5168216 0.260261578,16.5228264 0.0557703381,15.5194538 C-0.343917085,13.5877272 1.57086452,11.6560007 3.48564613,12.0592251 C4.92637986,12.3592992 6.04178662,13.8409147 5.90236078,15.2381344 C5.80011516,16.2227523 5.06580571,17.2355022 4.13630007,17.6949905 C3.56930164,17.9669326 2.69556634,18.0325738 2.11927285,17.8450276 Z" id="Path"></path>
                    <path d="M14.016945,17.8450276 C13.0409641,17.5168216 12.1579337,16.5228264 11.9534425,15.5194538 C11.553755,13.5877272 13.4685366,11.6560007 15.3833183,12.0592251 C16.824052,12.3592992 17.9394587,13.8409147 17.8000329,15.2381344 C17.6977873,16.2227523 16.9634778,17.2355022 16.0339722,17.6949905 C15.4669738,17.9669326 14.5932385,18.0325738 14.016945,17.8450276 Z" id="Path"></path>
                    <path d="M25.9146171,17.8450276 C24.9386362,17.5168216 24.0556058,16.5228264 23.8511146,15.5194538 C23.6187382,14.4223081 24.1485564,13.2313893 25.1710126,12.5280908 C26.1655836,11.8341696 27.2995805,11.8247923 28.3034466,12.4999589 C29.9486715,13.6064819 30.1717529,15.6694908 28.7960846,17.0479559 C28.0060048,17.8544049 26.8720079,18.1638562 25.9146171,17.8450276 Z" id="Path"></path>
                    <path d="M37.8122892,17.8450276 C36.8363083,17.5168216 35.9532779,16.5228264 35.7487867,15.5194538 C35.5164103,14.4223081 36.0462285,13.2313893 37.0686847,12.5280908 C38.0632557,11.8341696 39.1972526,11.8247923 40.2011187,12.4999589 C41.8463437,13.6064819 42.069425,15.6694908 40.6937567,17.0479559 C39.9036769,17.8544049 38.76968,18.1638562 37.8122892,17.8450276 Z" id="Path"></path>
                    <path d="M49.7099613,17.8450276 C48.7339804,17.5168216 47.8509501,16.5228264 47.6464588,15.5194538 C47.2467714,13.5877272 49.161553,11.6560007 51.0763346,12.0592251 C52.5170684,12.3592992 53.6324751,13.8409147 53.4930493,15.2381344 C53.3908037,16.2227523 52.6564942,17.2355022 51.7269886,17.6949905 C51.1599901,17.9669326 50.2862548,18.0325738 49.7099613,17.8450276 Z" id="Path"></path>
                    <path d="M61.6076335,17.8450276 C60.6316525,17.5168216 59.7486222,16.5228264 59.544131,15.5194538 C59.1444435,13.5877272 61.0592251,11.6560007 62.9740067,12.0592251 C64.4147405,12.3592992 65.5301472,13.8409147 65.3907214,15.2381344 C65.2884758,16.2227523 64.5541663,17.2355022 63.6246607,17.6949905 C63.0576623,17.9669326 62.183927,18.0325738 61.6076335,17.8450276 Z" id="Path"></path>
                    <path d="M73.5053056,17.8450276 C72.5293247,17.5168216 71.6462943,16.5228264 71.4418031,15.5194538 C71.0421157,13.5877272 72.9568973,11.6560007 74.8716789,12.0592251 C76.3124126,12.3592992 77.4278194,13.8409147 77.2883935,15.2381344 C77.1861479,16.2227523 76.4518384,17.2355022 75.5223328,17.6949905 C74.9553344,17.9669326 74.0815991,18.0325738 73.5053056,17.8450276 Z" id="Path"></path>
                    <path d="M85.4029777,17.8450276 C84.4269968,17.5168216 83.5439664,16.5228264 83.3394752,15.5194538 C82.9397878,13.5877272 84.8545694,11.6560007 86.769351,12.0592251 C88.2100847,12.3592992 89.3254915,13.8409147 89.1860656,15.2381344 C89.08382,16.2227523 88.3495106,17.2355022 87.4200049,17.6949905 C86.8530065,17.9669326 85.9792712,18.0325738 85.4029777,17.8450276 Z" id="Path"></path>
                    <path d="M97.3006498,17.8450276 C96.3246689,17.5168216 95.4416386,16.5228264 95.2371473,15.5194538 C94.8374599,13.5877272 96.7522415,11.6560007 98.6670231,12.0592251 C100.107757,12.3592992 101.223164,13.8409147 101.083738,15.2381344 C100.981492,16.2227523 100.247183,17.2355022 99.3176771,17.6949905 C98.7506786,17.9669326 97.8769433,18.0325738 97.3006498,17.8450276 Z" id="Path"></path>
                    <path d="M109.198322,17.8450276 C108.222341,17.5168216 107.339311,16.5228264 107.134819,15.5194538 C106.735132,13.5877272 108.649914,11.6560007 110.564695,12.0592251 C112.005429,12.3592992 113.120836,13.8409147 112.98141,15.2381344 C112.879164,16.2227523 112.144855,17.2355022 111.215349,17.6949905 C110.648351,17.9669326 109.774615,18.0325738 109.198322,17.8450276 Z" id="Path"></path>
                    <path d="M2.11927285,5.8420663 C1.14329193,5.51386033 0.260261578,4.5198651 0.0557703381,3.51649256 C-0.343917085,1.58476598 1.57086452,-0.346960599 3.48564613,0.0562638809 C4.92637986,0.356337912 6.04178662,1.83795344 5.90236078,3.23517315 C5.80011516,4.21979107 5.06580571,5.23254092 4.13630007,5.69202928 C3.56930164,5.96397137 2.69556634,6.02961257 2.11927285,5.8420663 Z" id="Path"></path>
                    <path d="M14.016945,5.8420663 C13.0409641,5.51386033 12.1579337,4.5198651 11.9534425,3.51649256 C11.553755,1.58476598 13.4685366,-0.346960599 15.3833183,0.0562638809 C16.824052,0.356337912 17.9394587,1.83795344 17.8000329,3.23517315 C17.6977873,4.21979107 16.9634778,5.23254092 16.0339722,5.69202928 C15.4669738,5.96397137 14.5932385,6.02961257 14.016945,5.8420663 Z" id="Path"></path>
                    <path d="M25.9146171,5.8420663 C24.9386362,5.51386033 24.0556058,4.5198651 23.8511146,3.51649256 C23.4514272,1.58476598 25.3662088,-0.346960599 27.2809904,0.0562638809 C28.7217241,0.356337912 29.8371309,1.83795344 29.697705,3.23517315 C29.5954594,4.21979107 28.86115,5.23254092 27.9316443,5.69202928 C27.3646459,5.96397137 26.4909106,6.02961257 25.9146171,5.8420663 Z" id="Path"></path>
                    <path d="M37.8122892,5.8420663 C36.8363083,5.51386033 35.9532779,4.5198651 35.7487867,3.51649256 C35.3490993,1.58476598 37.2638809,-0.346960599 39.1786625,0.0562638809 C40.6193962,0.356337912 41.734803,1.83795344 41.5953771,3.23517315 C41.4931315,4.21979107 40.7588221,5.23254092 39.8293164,5.69202928 C39.262318,5.96397137 38.3885827,6.02961257 37.8122892,5.8420663 Z" id="Path"></path>
                    <path d="M49.7099613,5.8420663 C48.7339804,5.51386033 47.8509501,4.5198651 47.6464588,3.51649256 C47.2467714,1.58476598 49.161553,-0.346960599 51.0763346,0.0562638809 C52.5170684,0.356337912 53.6324751,1.83795344 53.4930493,3.23517315 C53.3908037,4.21979107 52.6564942,5.23254092 51.7269886,5.69202928 C51.1599901,5.96397137 50.2862548,6.02961257 49.7099613,5.8420663 Z" id="Path"></path>
                    <path d="M61.6076335,5.8420663 C60.6316525,5.51386033 59.7486222,4.5198651 59.544131,3.51649256 C59.1444435,1.58476598 61.0592251,-0.346960599 62.9740067,0.0562638809 C64.4147405,0.356337912 65.5301472,1.83795344 65.3907214,3.23517315 C65.2884758,4.21979107 64.5541663,5.23254092 63.6246607,5.69202928 C63.0576623,5.96397137 62.183927,6.02961257 61.6076335,5.8420663 Z" id="Path"></path>
                    <path d="M73.5053056,5.8420663 C72.5293247,5.51386033 71.6462943,4.5198651 71.4418031,3.51649256 C71.0421157,1.58476598 72.9568973,-0.346960599 74.8716789,0.0562638809 C76.3124126,0.356337912 77.4278194,1.83795344 77.2883935,3.23517315 C77.1861479,4.21979107 76.4518384,5.23254092 75.5223328,5.69202928 C74.9553344,5.96397137 74.0815991,6.02961257 73.5053056,5.8420663 Z" id="Path"></path>
                    <path d="M85.4029777,5.8420663 C84.4269968,5.51386033 83.5439664,4.5198651 83.3394752,3.51649256 C82.9397878,1.58476598 84.8545694,-0.346960599 86.769351,0.0562638809 C88.2100847,0.356337912 89.3254915,1.83795344 89.1860656,3.23517315 C89.08382,4.21979107 88.3495106,5.23254092 87.4200049,5.69202928 C86.8530065,5.96397137 85.9792712,6.02961257 85.4029777,5.8420663 Z" id="Path"></path>
                    <path d="M97.3006498,5.8420663 C96.3246689,5.51386033 95.4416386,4.5198651 95.2371473,3.51649256 C94.8374599,1.58476598 96.7522415,-0.346960599 98.6670231,0.0562638809 C100.107757,0.356337912 101.223164,1.83795344 101.083738,3.23517315 C100.981492,4.21979107 100.247183,5.23254092 99.3176771,5.69202928 C98.7506786,5.96397137 97.8769433,6.02961257 97.3006498,5.8420663 Z" id="Path"></path>
                    <path d="M109.198322,5.8420663 C108.222341,5.51386033 107.339311,4.5198651 107.134819,3.51649256 C106.735132,1.58476598 108.649914,-0.346960599 110.564695,0.0562638809 C112.005429,0.356337912 113.120836,1.83795344 112.98141,3.23517315 C112.879164,4.21979107 112.144855,5.23254092 111.215349,5.69202928 C110.648351,5.96397137 109.774615,6.02961257 109.198322,5.8420663 Z" id="Path"></path>
                </g>
            </g>
        </g>
    </g>
</svg>