<svg xmlns="http://www.w3.org/2000/svg" viewBox="0 0 310 213">
  <defs/>
  <g fill="#FFF" fill-rule="evenodd" stroke="#FFF">
    <path d="M4.482691 29.828729L1 39.026148h63.014234V212h40.032124V37.998838h99.007907c23.922675-1.088272 43.135387 8.947079 57.638136 30.106053 21.754123 31.738461 5.979109 69.909075 0 76.850402-5.97911 6.941326-20.461812 32.314454-54.155445 32.314454-22.462422 0-37.004817-.280646-43.627187-.841939v12.106561h40.144496c32.068555-.578222 55.346634-15.10458 69.834236-43.579076 14.487603-28.474497 12.362707-57.00334-6.374687-85.586531-15.607517-20.119226-33.66735-30.212694-54.1795-30.280406-20.512151-.067711-59.919838-.101567-118.223062-.101567v172.919723h-20.59278V29.088356l-69.035781.740373zM24.614898 11.28761l3.729604-10h183.715301v10z"/>
    <path d="M137.949916 212v-10.03884h71.240701l2.21816-.135971c51.519759-3.1581 90.724629-47.483262 87.566529-99.003021-1.139573-18.590458-7.807762-36.416439-19.148995-51.190749h0l4.538066-10.612203c21.782218 27.114246 28.989424 58.469103 21.621619 94.064568-7.367805 35.595465-31.957988 60.397707-73.770549 74.406727h0l-7.84206 1.308025c-5.218957.870502-10.501399 1.304419-15.792451 1.297244L137.949916 212h0z"/>
  </g>
</svg>