<?xml version="1.0" encoding="UTF-8"?>
<svg width="318px" height="318px" viewBox="0 0 318 318" version="1.1" xmlns="http://www.w3.org/2000/svg" xmlns:xlink="http://www.w3.org/1999/xlink">
    <title>Page 1</title>
    <g id="Page-1" stroke="none" stroke-width="1" fill="none" fill-rule="evenodd">
        <g id="Artboard" transform="translate(-374.000000, -43.000000)">
            <g id="SVG-Layer" transform="translate(378.940511, 96.388426)" fill="#FFFFFF" stroke="#FFFFFF">
                <path d="M3.482691,28.828729 L0,38.026148 L63.014234,38.026148 L63.014234,211 L103.046358,211 L103.046358,36.998838 L202.054265,36.998838 C225.97694,35.910566 245.189652,45.945917 259.692401,67.104891 C281.446524,98.843352 265.67151,137.013966 259.692401,143.955293 C253.713291,150.896619 239.230589,176.269747 205.536956,176.269747 C183.074534,176.269747 168.532139,175.989101 161.909769,175.427808 L161.909769,187.534369 L202.054265,187.534369 C234.12282,186.956147 257.400899,172.429789 271.888501,143.955293 C286.376104,115.480796 284.251208,86.951953 265.513814,58.368762 C249.906297,38.249536 231.846464,28.156068 211.334314,28.088356 C190.822163,28.020645 151.414476,27.986789 93.111252,27.986789 L93.111252,200.906512 L72.518472,200.906512 L72.518472,28.088356 L3.482691,28.828729 Z M23.614898,10.28761 L27.344502,0.28761 L211.059803,0.28761 L211.059803,10.28761 L23.614898,10.28761 Z" id="Shape"></path>
                <path d="M136.949916,211 L136.949916,200.96116 L208.190617,200.96116 L210.408777,200.825189 C261.928536,197.667089 301.133406,153.341927 297.975306,101.822168 C296.835733,83.23171 290.167544,65.405729 278.826311,50.631419 L278.826311,50.631419 L283.364377,40.019216 C305.146595,67.133462 312.353801,98.488319 304.985996,134.083784 C297.618191,169.679249 273.028008,194.481491 231.215447,208.490511 L231.215447,208.490511 L223.373387,209.798536 C218.15443,210.669038 212.871988,211.102955 207.580936,211.095868 L136.949916,211 L136.949916,211 Z" id="Path"></path>
            </g>
            <rect id="Rectangle" x="374" y="43" width="318" height="318"></rect>
        </g>
    </g>
</svg>